<svg xmlns="http://www.w3.org/2000/svg" viewBox="0 0 1000 824" width="1000" height="824"><rect width="1000" height="824" fill="#0E0E0E"/><text x="48" y="48" fill="#ECE6DC" font-family="Helvetica, Arial, sans-serif" font-size="22" font-weight="600">CineCanon &#x2014; brand mark and confidence-grade system</text><text x="48" y="70" fill="#888" font-family="Helvetica, Arial, sans-serif" font-size="13">One outer C, one inner stroke weight, one rotational rule. Production vector.</text><rect x="48" y="110" width="280" height="280" fill="#161616" rx="6"/><g transform="translate(48,110) scale(0.7)"><path d="M 359.687 190.000 A 160 160 0 1 0 359.687 210.000 L 319.583 210.000 A 120 120 0 1 1 319.583 190.000 Z" fill="#ECE6DC"/><path d="M 299.820 194.000 A 100 100 0 1 0 299.820 206.000 L 279.775 206.000 A 80 80 0 1 1 279.775 194.000 Z" fill="#C97A3B"/></g><text x="188.0" y="412" fill="#ECE6DC" font-family="Helvetica, Arial, sans-serif" font-size="14" font-weight="600" text-anchor="middle">Brand mark</text><text x="188.0" y="428" fill="#888" font-family="Helvetica, Arial, sans-serif" font-size="11" text-anchor="middle">logo / default</text><rect x="360" y="110" width="280" height="280" fill="#161616" rx="6"/><g transform="translate(360,110) scale(0.7)"><path d="M 359.687 190.000 A 160 160 0 1 0 359.687 210.000 L 319.583 210.000 A 120 120 0 1 1 319.583 190.000 Z" fill="#ECE6DC"/></g><text x="500.0" y="412" fill="#ECE6DC" font-family="Helvetica, Arial, sans-serif" font-size="14" font-weight="600" text-anchor="middle">Confidence 0</text><text x="500.0" y="428" fill="#888" font-family="Helvetica, Arial, sans-serif" font-size="11" text-anchor="middle">unverified</text><rect x="672" y="110" width="280" height="280" fill="#161616" rx="6"/><g transform="translate(672,110) scale(0.7)"><path d="M 359.687 190.000 A 160 160 0 1 0 359.687 210.000 L 319.583 210.000 A 120 120 0 1 1 319.583 190.000 Z" fill="#ECE6DC"/><path d="M 129.289 270.711 A 100 100 0 0 1 129.289 129.289 L 143.431 143.431 A 80 80 0 0 0 143.431 256.569 Z" fill="#C97A3B"/></g><text x="812.0" y="412" fill="#ECE6DC" font-family="Helvetica, Arial, sans-serif" font-size="14" font-weight="600" text-anchor="middle">Confidence 25</text><text x="812.0" y="428" fill="#888" font-family="Helvetica, Arial, sans-serif" font-size="11" text-anchor="middle">single source</text><rect x="48" y="462" width="280" height="280" fill="#161616" rx="6"/><g transform="translate(48,462) scale(0.7)"><path d="M 359.687 190.000 A 160 160 0 1 0 359.687 210.000 L 319.583 210.000 A 120 120 0 1 1 319.583 190.000 Z" fill="#ECE6DC"/><path d="M 200.000 300.000 A 100 100 0 0 1 200.000 100.000 L 200.000 120.000 A 80 80 0 0 0 200.000 280.000 Z" fill="#C97A3B"/></g><text x="188.0" y="764" fill="#ECE6DC" font-family="Helvetica, Arial, sans-serif" font-size="14" font-weight="600" text-anchor="middle">Confidence 50</text><text x="188.0" y="780" fill="#888" font-family="Helvetica, Arial, sans-serif" font-size="11" text-anchor="middle">two corroborating</text><rect x="360" y="462" width="280" height="280" fill="#161616" rx="6"/><g transform="translate(360,462) scale(0.7)"><path d="M 359.687 190.000 A 160 160 0 1 0 359.687 210.000 L 319.583 210.000 A 120 120 0 1 1 319.583 190.000 Z" fill="#ECE6DC"/><path d="M 270.711 270.711 A 100 100 0 1 1 270.711 129.289 L 256.569 143.431 A 80 80 0 1 0 256.569 256.569 Z" fill="#C97A3B"/></g><text x="500.0" y="764" fill="#ECE6DC" font-family="Helvetica, Arial, sans-serif" font-size="14" font-weight="600" text-anchor="middle">Confidence 75</text><text x="500.0" y="780" fill="#888" font-family="Helvetica, Arial, sans-serif" font-size="11" text-anchor="middle">three or more</text><rect x="672" y="462" width="280" height="280" fill="#161616" rx="6"/><g transform="translate(672,462) scale(0.7)"><path d="M 359.687 190.000 A 160 160 0 1 0 359.687 210.000 L 319.583 210.000 A 120 120 0 1 1 319.583 190.000 Z" fill="#ECE6DC"/><path d="M 100 200 A 100 100 0 1 0 300 200 A 100 100 0 1 0 100 200 Z M 120 200 A 80 80 0 1 1 280 200 A 80 80 0 1 1 120 200 Z" fill="#C97A3B" fill-rule="evenodd"/></g><text x="812.0" y="764" fill="#ECE6DC" font-family="Helvetica, Arial, sans-serif" font-size="14" font-weight="600" text-anchor="middle">Confidence 100</text><text x="812.0" y="780" fill="#888" font-family="Helvetica, Arial, sans-serif" font-size="11" text-anchor="middle">primary verified</text></svg>